<?xml version="1.0" encoding="UTF-8"?>
<svg version="1.1" viewBox="0 0 1600 1600" width="1280" height="1280" xmlns="http://www.w3.org/2000/svg">
<path transform="translate(779,66)" d="m0 0h47l15 3 17 7 16 8 32 17 36 22 11 8 14 10 14 12 3 2v2l4 2 8 8 5 6 8 7 10 7 19 12 17 12 13 10 13 11 14 11 15 13 11 9 14 12 14 11 16 16 11 14 14 20 14 24 9 20 10 30 6 25 3 17 3 29 2 33v14l-2 33-4 28-6 27-8 26-9 27-8 18-12 23-10 16-14 17-6 7-8 7-7 7-23 16-16 9-28 15-21 9-24 9-23 6-9 1-7 4v10l1 5 1 27-4 24-5 18-8 20 1 4 1 1 1 7 8 1 10 2h19l52-2h67l28 2 22 3 23 5 18 5 11 6 5 4 9 13 7 15 6 18 7 30 6 33 10 82 2 20 1 17v24l-2 19-4 20-8 21-8 16-12 23-10 16-3 6 2 21v70l-5 73v9l-2 8-4 1h-9l-3-1-1-2v-14l3-42 3-65v-13l-3-21-6 12-6 21-8 27-5 19-4 27-5 12-3 1-1 10-5 23-3 5-7 2-9-3-2-3v-9l1-14h-6l-4-3-2-11-2-38-3-61-1-72 1-10 3-6 2-17 4-9 4-1 4 5 4 8 5 18 6 16 3 19 3 59 3 19 5 19v3h2l1-10 5-28 4-14 5-13 7-7 4-3v-9l-5-17-11-25-11-29-8-21-10-29-4-11-5-24-3-20v-26l2-28v-89l-2-45-2-14-3-6-10-3h-16l-3-1v2l4 1 16 15 3 7 1 6 1 24v94l-1 16-1 5-11 2-4 1 3 12-1 9v12l7-2 5-1 3 9 1 5v15l-2 10-5 8-5 4h-6v4l-3 4-5 39-4 6h-5l-3-5-1-4v-36l1-1-1-53-2-16v-85l1-84 1-22-1-2h-16l3 4 1 4v190l-2 8-2 1-4-3-3-5-5-7-4-9v-2l-11-3-2-2v-19l2-105v-49l-7 1-39 2-15 2-13 2-4 4-5 8 4-5 6-6h4l4 4 5 1-1 16-3 4-15 5-1 8-2 3-3 24-1 23v83l1-12 3-96 2-16 1-2 8 1 5 7 3 2 1 3-1 47-4 91-1 33-3 36-1 18-5 4h-2l-1 6-7 10-8 13-2 10v16l2 6 7 1 5-1 4 3 1-14 3-19 7-5 5 1 2 2 1 5-1 155 1 42v28l-3 6-11 1h-22l-13-3-4-4-4-9v-47l1-94 1-73-1-14v-45l1-56 4-130 3-45 2-14 1-3 3-3-6-1-4-11v-9l3-12v-2l-7 1-28 10-15 6-8 6-10 12-7 8-9 10-22 22-11 9-13 11-14 10-13 9-24 14-27 13-28 11-28 10-24 8-51 16-46 16-35 14-25 12-15 9-15 11-5 4-14 16-10 14-8 13-11 19-9 17-13 28-6 14-7 25-3 28v34l3 34 7 44 5 25 2 8v4l-2 1h-11l-4-3-5-18-6-31-4-32-3-37v-27l3-30 4-17 11-27 16-33 8-16 15-26 12-18 9-10 7-8 10-9 12-9 20-12 19-9 28-12 37-14 42-14 34-10 40-13 34-13 28-13 16-9 14-9 14-10 17-13 10-9 8-7 15-15 7-8 9-11-39-13-9-6-2-4-1-16v-33l1-43v-27l-10 2-43 5-29 2h-62l-26-2-12-2 3 21 2 35v42l-1 25-2 21-1 30-3 5-3 1h-23l-36-4-37-5-4-2-24-1h-41l-87 1-70 4-29 4-12 4-10 6-9 8-7 11-7 14-6 19-4 17-3 22-1 16v75l2 43 3 41 5 42 14 89 6 50 4 41 2 12-1 1h-13l-3-8-5-33-5-40-10-65-9-59-5-44-4-50-2-36v-45l2-27 4-26 6-26 6-16 9-17 8-10 8-9 15-10 14-6 22-5 13-2 34-2 136-3 21-1h26l-5-13-4-10-3-17v-11h-24l-43 3h-11l-7-1-9-1-17-6-22-11-18-12-19-14-14-11-15-13-16-16-9-11-11-14-16-24-7-12-8-18-8-25-12-44-9-35-9-30-6-24-5-25-1-7v-30l5-40 7-36 7-26 13-37 18-45 6-20 9-41 7-23 9-21 9-16 13-16 17-17 13-10 10-7 20-13 18-12 18-14 17-13 18-11 24-13 23-10 26-10 43-14 30-7 56-10 31-4h12l9 6h5l10-6 5-4 6-2zm35 15-26 3-7 4-4 3v2h-2v2l19-4 13-3 7 1 28 3 5 2h6l-5-5-6-5-16-3zm-111 3-9 4-6 3-28 5-18 2-27 5-26 6-42 12-17 7-2 2 6-1 7-3 22-5 25-7 18-4 28-5 14-3 27-4 15-5 13-5v2l5-2-1-4zm65 1 1 2 8 1 4-1v-2zm-62 5m-3 1v3l3-1-1-2zm124 2m-63 13-31 9-8 4-1 4h7l17-6 17-7 4-1-1-3zm67 7m4 1v1l44 8 14 4 28 13 28 16 22 12 4 1-5-6-17-12-28-16-28-12-9-3-16-3-28-3zm-152 10-41 7-18 3-30 1-25 5-17 4v1l11-1 26-5 8-1 30-1 18-2 19-4 21-3 1-4zm-157 6m-2 1m-2 1m-3 1m-1 1m28 11v1h5v-1zm-4 1m-9 1 4 1zm-19 1-16 6-24 11-15 9-14 10-10 9-8 7-12 11v2h-2v2h-2v2h-2v2l-4 2-13 11-8 7-9 10-12 22-5 15-3 17-1 10v9l2-2 5-12 4-19 5-16 8-17 8-10 10-11 24-16 13-11 11-9 14-11 16-12 10-6 10-7 12-8 13-4 6-1v-1zm11 0v1h6v-1zm153 11-22 2-39 2-25 3-25 6-29 8-17 7-20 8-21 11-17 8-14 11-15 13-6 5-7 1-8 10-10 18-7 19-1 5 5-5 1-3 4-2 4-5 9-17 9-13 10-10 6-7 9-7 13-10 21-11 43-16 35-11 19-4 25-3 12-1 19-1 30-3 15-5 1-2zm32 3-3 1-6 8-8 3-8 2-19 5-34 5-46 6-20 5-26 9-21 9-23 12-14 10-12 11-9 10-10 16-6 12-6 15-8 26-8 36-5 37-1 9-3 3-6 2-4-6-2-13-1-14-13-5-14-2-9 6-7 10-4 11-1 4v10l3 19 6 21 2 9 2 30v33l-5 40 1 14 5 19 8 16 7 11 5 5 5 4 10 4 19 3 2 2v4l-23 10-14 9-2 3v14l2 13 4 11 4 6 10 8 5 8 6 11 7 8 8 7 11 10 11 9 11 10 8 7 10 9 8 7 3 1v2l11 9 11 10 14 11 10 9 10 8 19 14 13 14 5 5 8 7 13 9 19 8 8 3h3l3-7-1-8-4-7-11-5-21-9-34-16-10-8-4-5-13-10-13-12-8-7-14-13-8-7-15-14-11-9-7-7-8-7-5-5h-2v-2l-8-7-10-10-8-7-10-9-7-9v-6l1-3-7-5-4-8-2-8v-11l4-4 16-6h13l6 3 9 8 5 4 3 6-1 6-9 6-7 2h-5l-7-11-2 1v8l-1 4h7l-5 4-4 4h26l10-3 9-6 1-3-4-13-8-14-12-17-7-9-5-5h-3l-1-6-6-8-9-9-7-8-6-7-6-10-5-16 20 9 6 4h2l3-8 2-16 4-15 4 4 6 13 7 37 4 17 6 15 15 28 8 15 15 33 10 18 9 12 11 13 14 13 10 7 22 12 25 11 37 15 24 9 18 4 19 2 16 1h47l46-3 26-4 24-6 17-6 21-11 17-11 9-7 10-8 14-12 10-10 7-8 8-10 10-13 14-21 14-25 11-23 16-56 5-21 5-10h4l1 3v18l-8 39-2 8 6-5 18-7 5-6 5-14 6-14 12-38 11-26 16-38 6-16 2-12v-14l-5-44-3-42-2-13-5-10-4-3h-10l-5 2-5-1-8-16-8-13-4-9-5-10-9-8-8-7-2-1 3 10 8 14 10 9 8 10 6 8 7 14-1 3-8 7-8 8-5 10-1 4v10l5 29 5 8 9 7 8 8 5 9 4 13v9l-3 9-9 14-10 13-6 7-8 11-5 4-6 1-2-6 1-49v-33l-2-28-4-28-8-29-10-38-7-21-8-16-8-12-14-17-12-12-11-9-12-8-13-8-23-11-25-9-28-8-21-4-14-2-17-1h-41l-29 2-7-3-5-5-4-2zm312 47 4 7 9 10 9 11 12 12 12 9 6 1-1-5-7-11-9-9-11-9-16-12-6-4zm105 83m1 1 1 4 6 10 14 20 8 10 11 12 8 11 10 15 8 15 1-3-5-13-8-16-12-20-9-12-9-11-9-10-8-8zm-830 17m-3 8m-1 3m92 1-12 7-10 5-6 7-1 3v8l2 2 15-1 10 2 15 6 7 2 1-2v-22l-4-9-4-6-7-2zm-94 4 1 2zm-1 2 1 4zm-1 4 1 3zm-1 3 1 3zm-1 4m855 11 1 7 5 17 3 12v2h11l9 9-2-6-3-6-3-10-7-10-10-13zm-738 14-1 6 2-3zm-3 12 1 2zm-1 2 1 3zm-123 1m-1 2 1 4zm53 0-4 8-2 12v28l4 24 4 20 4 16 4 19 8 21h1l-1-10-3-13-2-16-7-22-3-20-1-11v-55zm-54 5-5 20-2 18-1 3h2v33l5 44 4 26 6 28 8 33 17 51 3 12h1v-11l8 6 2 3h2l2 5 8 9 5 5 5 4 13 19 8 7 4 2-5-13-7-12-12-16-6-7-9-2-7-7-13-28-7-19-10-37-2-6-2-2-2-12-4-28-5-30-4-34-1-17v-28l2-13v-6zm873 2-2 8-4 29-3 24-6 37-11 66-9 36-6 25-6 27-5 25-1 16 2-2 4-24 10-30 8-37 6-21 4-20 5-39 8-52 4-36 3-28 2-4zm46 2 1 3zm2 25v7l3 17v31l-3 27-7 36-7 31-11 45-7 31-12 36-12 27-10 18-4 7 1 3 7-8-2 7-5 2-10 16-8 8-6 9 4-2 10-9 9-10 7-11 6-10 10-15 6-10 10-22 9-27 7-28 17-75 6-33 3-34v-19l-3-21-7-24zm-139 20-1 7 1 6v24l3 3 4-1 4-5 2-6v-16l-3-6-9-6zm-805 37-4 36v28l2 13h1l1-13v-36l1-28zm67 40-5 11-1 7 2-1 5-15zm29 18 1 2zm-36 2 1 2zm-1 2-1 7v6l6 12 2 1-2-8-3-8-1-10zm900 5m1 1-2 6-5 33-4 33-5 23 1 3 9-27 1-5 2-25 4-36v-5zm-70 7-4 28-4 30-7 31-8 31-4 20-3 19 1 4 4-9 4-24 9-34 7-32 3-23 3-32v-9zm-891 6 1 2zm-32 4m1 1-1 3 2 21 5 23 8 26 10 28 11 26 11 27 9 19 8 14 9 15 12 17 14 17 7 8 12 14 9 9 7 8 15 15 8 7 11 10 13 10 17 12 15 10 31 18 8 6 9 1 3-1-23-16-17-12-15-12-11-8-14-13-8-7-32-32-2-3h-2l-2-4-8-8-9-11-12-15-9-12-9-11-14-18-11-17-9-16-6-15-9-27-10-26-8-23-8-19-8-26-5-11zm103 0v7l3 14 7 20 16 32 3 11 4 5h2l2 5 2-1-4-13-3-10-5-6-8-14-5-12-10-26-3-12zm702 77m-745 1 1 3zm1 3 1 3zm914 0 1 2zm-913 3 1 2zm1 2 1 5 1-3zm3 6 2 5 8 11 1-2-10-14zm23 11-1 1-1 16 4 10 8 14 8 10 14 14 15 11 10 7 11 7 19 14 11 10 7 6h2v2l11 9 7 7 8 7 14 14 8 7 16 16 8 7 9 8 12 9 14 11 16 8 13 11 16 12 4 4h2l2 4 4 6 9 4 8 1-2-4-5-5-8-6-9-6-13-12-8-8-10-8-14-12-13-10-10-9-11-9-14-12-10-9-8-7-16-15-8-7-13-11-14-12-13-10-34-24-7-5-2 1 12 10h2l2 4v2l-10-7-16-12-8-7-7-8-10-14-5-11 2 1-2-6-2-3h-2l-1-16zm-12 5m746 0-13 11-5 5 1 3 8-8 5-3 7-7zm-756 5v9l2 9 8 18 10 16 10 12h2l2 4 12 13 9 11 11 13 8 11 12 16 9 11 12 13 11 12 14 14 16 14 18 13 20 12 10 7 13 9 7 4 7 3h7l-4-4-12-9-19-14-13-10-13-11-13-10-17-16-22-22-7-8-10-11-8-10-11-13-8-10-15-16-7-8-16-17-6-7h-2v-2l-6-5-11-15-5-10-4-16zm763 0-3 10-7 12 1 3 2-1 3-5-4 18-3 10 1 3 4-9 5-19 3-16v-6zm-732 17m1 2 2 5 2 1-2-5zm6 9m3 3m688 5-4 3-5 13-7 11-11 15-10 14-8 12 1 2 10-11v-2h2l13-19 7-10 7-11 3-6-2 7-11 18-10 14 1 2 12-14 11-15 1-3h2l2-4v-7l-2-3 1-5zm-680 3m1 1m775 1-7 13-6 7-8 7-10 9-11 9-12 10-14 11-13 10-12 10-11 9-7 7v1l8-1 9-5 9-7 12-8 18-13 17-12 14-12 14-14 8-11 4-5 1-12zm-773 1m1 1m1 1m1 1m1 1m1 1m1 1m693 2m-6 12m-1 2-1 4 2-4zm-622 2m620 2 1 2zm-1 2 1 2zm-1 2m-759 5 3 16 2 8 5 12 9 19 18 27 9 10 9 11 8 7 8 8 11 9 13 11 18 13 15 10 24 14 11 5 7 2h5l-1-4-3-3h-2v-2l-10-7-16-10-21-16-13-11-8-7-10-9-29-29-7-8-12-13-10-13-14-19-6-11-6-9-5-11zm750 6 1 2 1-2zm-1 2m-1 1m-1 1m-25 1m24 0m-44 18-1 2h2zm-43 57-10 4-9 7-10 10-6 8-10 4h-8l-4 5 1 2 5-1 5 3 5-1 8-10 7-4 7-8 5-8 8-4 13-4-2 12v8l-5 11-9 12-4 4-5 1-7-2-6 10-4 3-5 1h-21l-11-1-2-3-1 3v7l4 5 10 2 11-1h10l1 7h2v2l2-1-2-5v-7l7-9 13-4 5-6 7-5 7-9-1 5-3 5-4 17-5 8 1 2 6-8 7-20 3-7 4-16 1-3v-13l-3-7-1-1zm-70 2-2 3 3-1zm1 14 4 4v15l2-1 3-7 4-5-1-2-2 1v2l-3-3v-4zm16 0m-1 1m-1 1m-1 1m101 13-10 15-6 11-6 7-12 16-11 13-2 2-7-1v2l-4 2-8 8-21 3-17 2-9 2 2 2h18l3 1v-2h13l1-2 10 1 20-11 16-12 8-8 16-28 4-10 3-10 1-3zm-111 4 1 2zm-1 2m-331 24 3 7 5 8 6 7 1-2-10-14-3-6zm371 21-3 4 5-2 1-2zm-356 1m1 1m1 1m1 1m1 1 1 2zm1 2m1 1m1 2m46 1m3 1 2 2 3-1zm20 1-15 1 4 2-2 5-10 5-11 3-8 5v6l18-4 6-4 7-4 17-4 3-2 3-6-1-3zm-72 12v7l5 15 6 11h2l-2-5-6-16-3-7-1-5zm349 5m-43 2m2 0m-229 21-19 6-4 1h-12l-8-1v3l8 6 6 1h17l11-2 1-4-3-1-10 1v-2l10-1 5-5v-2zm544 5 6 7 1 5 3 55 1 48v46l-1 42 1 20 4 25 6 20 8 19 11 30 7 19 4 10 8 10 3 12h2l2-12-2-3h-2l-4-17-4-15-8-21-6-16-7-29-4-21-6-47-1-15 1-94v-53l-1-15-3-5-6-3zm-184 2-2 4 5-2 1-2zm220 0 2 5 8 17 7 24 4 13 8 15 5 12 4 15-1 4-5 4-8 4-3 1-3 9-3 7-7 26-5 12v18l6 64 3 16 4 4 2 4-1 7 2 1 5-37 2-20 1-22 1-49 4-6 3-1v-2h2l1 8 2 5 2 22 1 34v16l-2 36-4 36-3 16 4 3h2l-5 16-4 8 1 2 5-6 7-18 4-6 5-8 6-21 4-24 1-10v-47l-4-41-4-32-6-37-6-30-6-23-8-18-6-9-8-8-10-7zm-237 16m1 360v37l2 2 15 1 3-2 1-5v-25l-3-5-9-3zm198 119-7 2 1 6 6 7 4 1h7l2-3-1-7-3-5-1-1z" fill="#1F2020"/>
<path transform="translate(912,1016)" d="m0 0h1v10l-1 14-2 10-2 26-2 30-3 5-3-4-4-4-4-1h-13l-2 1 1 16h8l13-4 3-3 1 6 1 23-1 45-1 24-3 7-2 2-19 1-4 16-3 17-5 6-6 3-1-5 1-16 2-24v-146l-2 4-3 8-2 23-2 82-3 71-3 8-2 9-7 9-4 2-3-5-2-17-2-22-2-11-9-3-2-2v-16l1-25v-67l-4 3-2 27-3 75-3 7-1 6-1 57-4 11-4 4-4-1-3-6-1-8-3-59-4-4v-2l-4-2v-34l-1 14v21l-2 4-3 3-1 17-1 76-1 43-5 2h-8l-4-2-1-2v-224l-5 4-4 6-1 77-2 60-1 2-9-1-4-2-3-24-1-14-4-17v-80h-2l-2 4-2 8 1 33 1 43-9 4-5 4-6 19-5 5-14 4-2 7-2 23-1 55 7-1 8 2h8l3 3 3 12-1 5-5 4h-10l-5-2-4-8-3-8-1-2 1-2h-2v2l-10 4-5 4-4 2-2 10-1 11v49l1 66 2 9 1 8-1 1-8 1-10-1-2-5-1-142-1-61-1-28-2-13-1-1-11 1-3 1-1 3v58l1 24 1 41 1 76 1 32 1 13-3 1h-57l-2-2 2-34 5-100 3-6 9-4 19-4 2-15v-52l-2-7-8-4-11-4-2 6-1 10-1 31-2 5-2 2h-8l-3-4-1-9-2-56-3-7-2-3h-12v162l-2 5-5 1-7-6-1-10-2-68-1-92-3-12-4-7-5 5-4 7-2 7-2 2 1 2 1 21v22l-2 49v35l-2 5h-14l-11-2 3 11 7 47 5 17 5 9 8 14 4 20 1 9-1 2-3 1-13 1h-35l-5-5-3-9-4-23-2-28v-74l2-20 4-24 7-30 6-18 8-16 10-17 8-11 9-10 16-14 8-8 13-10 16-10 17-8 26-10 36-12 23-9 35-12 27-10 31-12 27-11 29-14 17-9 24-15 21-16 14-10 11-10 13-10 10-10 8-7zm-135 120-1 1v11l2-1 1-9zm-132 50-2 3v3h-2l-2 6-1 8-1 50 3 4v-2l4 1 2 4 1-23 1-51-1-3zm-65 17-5 7-1 4-1 37-2 39 4 2v7l2 2 2-5 2-14 2-46-1-26-1-7zm-36 21-10 3-4 3-2 8 1 9 3 4h9l3-8 2-18zm-57 47m-3 2m-1 1m-2 3 1 2zm-1 3 1 2zm-1 2-8 16-5 13-3 15 5-5 5-8 3-7 3-19 1-5zm97 20 1 2zm-114 24m221 44 2 2v-2zm-112 21-11 2 1 3 19-3 1-2zm-116 53v21l2 25 3 14 6 12 4 3 2-1-4-5-4-14v-5l7 21 2 5h2l-1-8-10-30-5-22-3-16z" fill="#404141"/>
<path transform="translate(855,263)" d="m0 0h39l46 4 30 5 14 4 8 8 4 11 4 13-1 2-10 3-15-2-36-10-15-4-21-3-27-2h-13l-26 4-15 4 25-4h10l9 2 34 3 36 7 19 6 14 7 5 5 8 6 8 7 2 4-1 5-6 7-14 6-23 4-40 4-17 1h-37l-30-2-20-4-5-3-1-18 3-15 1-9-8 1-4 4v17l1 6v10l-3 5-2 9-1 10-1 30v25l1 64 1 34 1 17 3 9 10 6 18 6 17 4 10 5 7 8 4 7 2 10-1 10-5 12-6 10-8 9-14 7-17-1-21-6-9-2-4 4-8 2-10 1h-28l-14-2-13-6h-16l-25-1-7-5-6-12-4-15v-7l4-11 11-14 12-13 10-15 2-7 1-13-2-45-2-42v-25l1-30 2-9 4-52 2-9 7-8 14-8 11-2h33l15 2 10 2 14-14 11-8 20-11 16-6zm-41 38m57 18-3 2-1 8 2 12 4 6 2 1h18l5-2 2-4v-14l-2-6-3-2-6-1zm-157 4-4 4 4 1 4-3v-2zm32 0-14 1v1l17 2h4l2 4 4 1 4-7-1-2zm175 1-1 6v14l2 4h37l-2-4-4-6-10-7-12-5-6-2zm-86 5-9 3-5 6-1 6 1 4 4 2h18l4-3v-10l-3-8zm-122 15-7 7-1 2-1-7h-1l-5 25-5 17-2 17v79l2 28 2 22 1 2 3-1 5-7-2-1v-8l-2-16-1-73 1-29 2-19 7-14 9-3 9-4-2-1-2-4-9-12zm38 8-10 4-5 1v1l7 1 9 10 3 2 5-1 4-6v-6l-5-5-2-1zm-16 6m12 23-23 2-4 2-2 77v17l1 35-8 10-2 3 5-2 9-11 9-3 13-4 7-1 2 5v8l-1 5v14l2 12v8l-32 3-10 1-6-5-6-3-4-4-3 1-6 9-3 27-4 5-5 4-1 7 3 1 3-1 1 3 4 4 12 17 7 4 10 2 35 3h11l4-1-3-25-1-2-2 1v9l-5 5-11 4-18 1h-15l-10-6-9-14-5-10v-3l5-7 2-1v-2l4-2 4-5 7-11 1-3 4 2h18l15 5 11 9 7 7 2 1 10-1-2-7-5-10-5-12v-10l-2-10-1-18-3-12-5-9-3-2 3-1v-13l-2-43-1-57-1-2zm-40 146-2 1-4 8-3 4 1 3 2 1 1 3 4-1-3-2 5-1 1-4-1-10 1-2zm-6 21m25 36-5 3-3 4-2 6v9l4 7 2 1 13-3 7-4 3-5 3 1 2 4 2-2-10-14-7-6zm33 19 1 4z" fill="#1F2020"/>
<path transform="translate(1073,959)" d="m0 0 21 1 3 1-1 7h7v1h-5l3 4 1 4v190l-2 8-2 1-4-3-3-5-5-7-4-9v-2l-11-3-2-2v-19l2-105v-49l-7 1-39 2-15 2-13 2-4 4-5 8 4-5 6-6h4l4 4 5 1-1 16-3 4-15 5-1 8-2 3-3 24-1 23v83l1-12 3-96 2-16 1-2 8 1 5 7 3 2 1 3-1 47-4 91-1 33-3 36-1 18-5 4h-2l-1 6-7 10-8 13-2 10v16l2 6 7 1 5-1 4 3 1-14 3-19 7-5 5 1 2 2 1 5-1 155 1 42v28l-3 6-11 1h-22l-13-3-4-4-4-9v-47l1-94 1-73-1-14v-45l1-56 4-130 3-45 2-14 1-3 3-3-6-1-2-7 2-5h2v-2l4-4 3-7h2v-2l10-2 30 1 9-2h9l2-1 17-1zm-85 18-2 4 5-2 1-2zm-17 16m1 360v37l2 2 15 1 3-2 1-5v-25l-3-5-9-3z" fill="#404141"/>
<path transform="translate(912,1016)" d="m0 0h1v10l-1 14-2 10-2 26-2 30-3 5-3-4-4-4-4-1h-13l-2 1 1 16h8l13-4 3-3 1 6 1 23-1 45-1 24-3 7-2 2-19 1-4 16-3 17-5 6-6 3-1-5 1-16 2-24v-146l-2 4-3 8-2 23-2 82-3 71-3 8-2 9-7 9-4 2-3-5-2-17-2-22-2-11-9-3-2-2v-16l1-25v-67l-4 3-2 27-3 75-3 7-1 6-1 57-4 11-4 4-4-1-3-6-1-8-3-59-4-4v-2l-4-2v-34l-1 14v21l-2 4-3 3-1 17-1 76-1 43-5 2h-8l-4-2-1-2v-224l-5 4-6 8-1 19-3-1v-2h-2l3 6v3h2v10l-3-1-4-12-1-9-6 1-5 2-1-9h3l2 2 3-3h2v-2l-7 2-2-1v-19h2l1-2 4-2v-2l33-13 33-16 22-12 17-11 21-16 14-10 11-10 13-10 10-10 8-7zm-135 120-1 1v11l2-1 1-9z" fill="#404141"/>
<path transform="translate(1072,1182)" d="m0 0h6l4 4v7l-1 5h2v-2l3 1 2 11 1 1 15 2v19l1 28v25l-3 1 2 7 4 2 11 7 15 8 1 4 1 102 2 72v23l-5 2-8 8-3 1-7-8-2-5-7-41-2-20-1-50 1-24v-10l-2-6-12-1-5 3h-2l-4 52-5 45-2 9-2 3v12l3 14 1 9v29l-4 3h-11l-3-2-1-5 4-40 2-4 1-10v-12l-2-16v-25l-3 3-6-1-9-3-2 7-4 49-2 34-3 5-4 4-4-2-4-4-1-3v-140l2-69 1-1h18l2-38 3-14 6-5 9-4 4-4 5 8 2 9 1 72-1 25-5 47-1 17v15l2-1 9-59 3-9 1-2 1-91 1-53h-2l-1 9-2 6-2 12-2 1-2-7v-49z" fill="#404141"/>
<path transform="translate(635,1169)" d="m0 0h5l-1 4-2 4-5 1-1 3-10 2-9 3v2l-4 3-3 1v2l-3 3h-2l-1 4-6 9-2 10-2 30-3 11-3 9h-1v-39l1-14-2-24-3 6-1 7-4 9v33l-1 18-1 7v7l-5-3 4 4-1 6h-5l-4-9-4-1-2 10-1 2 1 22 1 13 3 12 2 4 1 4v9l-3 3h-8l-3-4-1-9-2-56-3-7-2-3h-12v162l-2 5-5 1-7-6-1-10-2-68-1-92-3-12-4-7-5 5-4 7-2 7-2 2 1 2 1 21v22l-2 49v35l-2 5h-14l-11-2 3 11 7 47 5 17 5 9 8 14 4 20 1 9-1 2-3 1-13 1h-35l-5-5-3-9-4-23-2-28v-74l2-20 4-24 7-30 6-18 8-16 10-17 8-11 9-10 16-14 8-8 13-10 16-10 17-8 26-10 36-12zm-91 55-10 3-4 3-2 8 1 9 3 4h9l3-8 2-18zm-57 47m-3 2m-1 1m-2 3 1 2zm-1 3 1 2zm-1 2-8 16-5 13-3 15 5-5 5-8 3-7 3-19 1-5zm-17 44m-7 118v21l2 25 3 14 6 12 4 3 2-1-4-5-4-14v-5l7 21 2 5h2l-1-8-10-30-5-22-3-16z" fill="#202121"/>
<path transform="translate(248,510)" d="m0 0h1l1 26 1 8 1-8 1-19h1l2 18 6 31 4 17 4 13 4 11 7 20 4 12 5 10 5 7v2l3 1 5 13 2 2 2-2 2-16h1v-8l-4-15 1-3 4 12 2 9 1-8 5 2 4 4-1 2-5-4-1 5 1 12 1 3h-2v9l7 13 7 10 9 10 12 12 7 5v3l12 9 4 7-5-2-14-10-10-8-8-7-7-8-10-14-5-10 1-3-2-6h-2l-2-15-1 16 4 10 8 14 8 10 13 13 15 11 10 7 11 7 19 14 11 10 9 7v2l4 2 13 12 10 9 13 13 8 7 16 16 8 7 9 8 12 9 14 11 16 8v4l4 2 4 4v11l-4 4-1 4-9-12-2-6v4l4 7-1 2-5-6-6-1-1 2-6 2-6-4-8-6-6-4-1-2-6-2-7-3-7-1-13-11-14-11-20-18-25-25-7-8-10-11-8-10-11-13-8-10-15-16-7-8-16-17-5-6-2-1v-2l-4-2-9-11-7-10-4-11-2-9 1 12 8 19 11 18 9 11 5 5 12 13 9 11 11 13 8 11 12 16 3 5h-3l7 10 4 7 2 3 3 6-5-2-7-4-21-21v-2l-3-1-9-11-7-8-7-9-8-11-2-5-3-1v-3h-3l-1-4h-2l-7-8-1-3-4-2-1-3h-3l-1-5-2 1 1 4-4-5-3-4 1-2 1-4-2-2-2-9-6-13-4-12-1-7-3-6h4l1 4 3 1 2 6h5l-3-15-4-1-3-3-3-2-1-6 5-1 1 5v3h2l1 2 1-2h2l-4-7 1-3h2l-2-5-8-2 1 7-3 2-2-2-1-9-3-5 1-4 2-1-3-19-8-29-6-22-3-16-1-10zm4 43 1 2zm29 83 1 3zm1 3 1 3zm1 3 1 2zm1 2 1 5 1-3zm3 6 2 5 8 11 1-2-10-14zm11 16m21 22m1 2 2 5 2 1-2-5z" fill="#3F4040"/>
<path transform="translate(965,1293)" d="m0 0 3 3v4h6v22l2 6 7 1 5-1 4 3 1-14 3-19 7-5 5 1 2 2 1 5-1 155 1 42v28l-3 6-11 1h-22l-13-3-4-4-4-9v-47l1-94 1-62h1l1 41 2-9 1-19 2-7 1-24zm7 60v37l2 2 15 1 3-2 1-5v-25l-3-5-9-3z" fill="#404141"/>
<path transform="translate(952,974)" d="m0 0 5 1 1 9-3 31-3 64-5 121-2 73-2 7-5-2-5-5-5-10-3-11-1-10-9-11-3-4-2-9v-20l2-61 3-84v-31l-1-7 5-6 10-8 11-13z" fill="#404141"/>
<path transform="translate(553,331)" d="m0 0h34l20 2 27 7 16 7 14 9 3 3 4 11-2 6-9 6-12 5-19 5-29 5-31 3-18 1h-28l-18-2-14-4-19-7-11-6-4-5 1-7 7-11 5-4 28-14 14-5zm3 18-17 4-3 3 2 11 3 4 10-1 9-6 3-5-1-6-4-4zm38 4-8 3-5 5-6 16-1 3 17 1 14-2 22-6 8-5-1-5-4-6-5-3-5-1zm-94 6-5 3-4 4-1 7 8 5 15 4 8 1 6-1-1-5-7-11-6-5-7-2z" fill="#202121"/>
<path transform="translate(713,676)" d="m0 0h39l18 2 16 5 16 8 14 10 9 9 6 12 1 10-4 7-10 9-17 9-18 5-21 3-14 1h-28l-18-3-17-5-17-8-16-10-10-7-1-1v-6l5-9 12-14 7-7 13-9 15-7 11-3zm2 15-16 4-20 10-8 8 1 4 7 1 19-4 9-3 13-2 15 1h14l32-3-6-7-6-6-12-2-15-1zm66 33-37 2-35 1-11 2-13 6 4 3 17 8 13 2 12 1h31l21-3 17-7 10-7 3-2v-3l-8-3z" fill="#202121"/>
<path transform="translate(601,1315)" d="m0 0h1l1 24 1 8 1 24 1 41 1 76 1 32 1 13-3 1h-57l-2-2 2-34 5-100 3-6 9-4 19-4 2-15 1-4 1-44 9-5zm-30 76-11 2 1 3 19-3 1-2z" fill="#3F4040"/>
<path transform="translate(1155,1276)" d="m0 0 4 1 5 8 3 8 5 16 6 18 2 15 3 59 3 19 5 19v3h2v-5h1v17l-2 2-2 7h-2l-1 5-1 2h-3v2l-2 1-1 2-2-2h-8l-7 1 3 7 4 5 11 2 2-7h1l2 8 5 2-1 2h-2l-1 10-5 23-3 5-7 2-9-3-2-3v-9l1-14h-6l-4-3-2-11-2-38-3-61-1-72 1-10 3-6 2-17 4-9z" fill="#404141"/>
<path transform="translate(1128,972)" d="m0 0 4 1 16 15 3 7 1 6 1 24v94l-1 16-1 5-11 2-4 1 3 12-1 9v12l7-2 5-1 3 9 1 5v15l-2 10-5 8-5 4h-6v4l-3 4-5 39-4 6h-5l-3-5-1-4v-36l1-1-1-53-2-16v-85l1-84h1l1 51v19l2-5 4-26 4-16 5-9h5l5 8 2 9 4 27 1 10 1 3h2v-13l-1-13v-36l-2-5-8-6-5-6-3-9z" fill="#404141"/>
<path transform="translate(912,1016)" d="m0 0h1v10l-1 14-2 10-2 26-2 30-3 5-3-4-4-4-4-1h-13l-2 1 1 16h8l13-4 3-3 1 6 1 23-1 45-1 24-3 7-2 2-19 1-4 16-3 17-5 6-6 3-1-5 1-16 2-24v-146l-2 4-3 8-1 7h-2l1-11 4-12v-5l14-12 14-11 10-10 8-7z" fill="#404141"/>
<path transform="translate(561,279)" d="m0 0h28l25 4 14 4 21 9 13 7 10 9 5 10 4 12v5l-2 2-5-1-5-2 1 4-1 1-9-1-11-4-29-15-15-4-14-3-8-1h-20l-26 3-27 6-18 7-14 2h-9l-3-4-1-8 4-10 9-9 13-8 13-5 21-5 26-4z" fill="#1F2020"/>
<path transform="translate(683,1408)" d="m0 0 7 1 1 1v95l-2 24 23-10 5-3 3-6 6-19 5-6 6-2 1-15 6-39h3l5 1 7-1 1 1 1 24 1 49 1 28-1 1-8 1h-65l-2 1-17 1h-14l-4-4v-21l3-63 7-5 5-2h6l1-24 3-5zm-1 61-1 22v17h1l1-12v-27z" fill="#404141"/>
<path transform="translate(352,637)" d="m0 0h1l2 6 2 4h2l3 4 1-3v2l3 1-1 2 6 1 2 2 4 2 4-4 5 1-2 7 2 1-1 2h5l-5 6v14l2 13 4 11 3 5 10 8 4 5 8 15 6 6v2l4 2 8 8 11 9 10 9 11 9 15 14-2 2-2-1 1 6 3 1v6l4 2 1-2 4 6 3 1v4l7 7 2 1v2l4 2 8 6 2 4-4-2-10-7-4-2-12-12-3-1-2-2-1 2v-2l-5-1v-2h-2l-1-2h-4l-11-11-8-7-11-10-11-9-10-9-14-11-17-12-18-13-10-7-5-5-8-7-14-14-7-10-5-8-4-8 1-9v-3l-1-15 2-3 9 6 8 11 5 4 5 6 5 5 10 14v2l4 2 7 6-5-12-7-12-12-16-5-6-9-2-3-4 2-2v2l4 2 7-1 3-3h3l2-4z" fill="#202121"/>
<path transform="translate(1045,979)" d="m0 0h12l2 1 1 7-3 71-1 11-2 2h-8l-7 2-4 70-2 22-4 9-4 6-3 5-5 1 3 1-1 8 2 1-3 29-2 27-3 6-3 2-4-1-1-7 3-44 2-22 2-6 5-101 3-40v-32l-2-7 1-10 4-5 8-3 12-2zm-26 198-1 2h2z" fill="#404141"/>
<path transform="translate(439,1375)" d="m0 0 4 1 1 15 3 6v4l17 1-2 1 3 11 7 47 5 17 5 9 8 14 4 20 1 9-1 2-3 1-13 1h-35l-5-5-3-9-4-23-2-28v-23h2v-12l1-8v-7l1-8 3-22 2-13zm16 69v21l2 25 3 14 6 12 4 3 2-1-4-5-4-14v-5l7 21 2 5h2l-1-8-10-30-5-22-3-16z" fill="#3F4040"/>
<path transform="translate(268,428)" d="m0 0h1l1 29 1 3 5 44 4 26 6 28 8 33 12 36 5 21v9l-2 4-1 11-3 3-3-3-5-13-5-5-6-11-4-10-8-22-4-13-3-8-4-16-5-23-4-22-1-12-1-3v-14l1-18 2-13 4-20 5-16 2-4z" fill="#1F2020"/>
<path transform="translate(791,1364)" d="m0 0 5 1 3 4 3 18v9h2v3l16 2 5 3 1 2v28l-2 7-6 2h-17v58l1 11 1 5 15-2 5-3 2 2 4 14-3 3-28 2h-12l-2-7-1-105 2-45 1-2h2v-6z" fill="#202121"/>
<path transform="translate(293,731)" d="m0 0h3v2l2 1-1 2h3l7 8 2 4 4 2v2h2l1 4h3l1 3 3 3 10 14 18 22 5 6 24 24 10 5-2-5-2-1-8-14-3-3v-2l5 1 9 11 9 9 7 8 15 15 16 14 18 13 20 12 10 7 13 9 7 4 7 3h9l2 1v2l-16-1v2l-14 4h-8l-23-16-17-12-15-12-11-8-14-13-8-7-33-33-7-8-7-7-9-11-12-15-9-12-9-11-14-18z" fill="#212222"/>
<path transform="translate(965 1e3)" d="m0 0h3l1 5-1 3v13l-1 7h-3l3 1v11l-1 12-1 33 2 13 3 21 2 12 1 24v44l-2 10v9l-4 20-4 16-1 10 1 5v11h2v3l5-1v-2l7-1 3 2-1 5-3 5-1 4h-7l-2-6-1 2-1 24-2 7-1 19-2 9-1 9h-1l-1-61-1-14v-45l1-56 4-130 3-45z" fill="#212222"/>
<path transform="translate(404,434)" d="m0 0h9l2 6 1 33 4 45 3 21v6l-7-1-7-3-13-10-9-9-4-8-2-12-2-31v-8l4-5 3-9 4-5 12-9z" fill="#1F2020"/>
<path transform="translate(683,1408)" d="m0 0 7 1 1 1v95h-1l-1-28-1-1-1-29h-3v54l-2 27-1 1h-16l-5-2-3-4h2v-2h-2v-2l-2-1 1-4-2-1-1 18h-1v-21l3-63 7-5 5-2h6l1-24 3-5zm-1 61-1 22v17h1l1-12v-27z" fill="#3F4040"/>
<path transform="translate(710,239)" d="m0 0h17l12 3 8 6 5 10 2 12v12l-4 7-4 2-29 2-17-4-5-4-4-11-1-5v-8l4-10 7-8z" fill="#1F2020"/>
<path transform="translate(1243,1122)" d="m0 0h2l4 13 2 22 1 34v16l-1 23h-1l-1-8h-3l-2 17v12l2 6-1 10h-2l-5 20-1 3-5-1-5-3-3-3-1-9-2-1-2-9-2-7 1-9 4-3 4 2 1 6v1l5-40 2-34 1-49 4-6 4-1z" fill="#404141"/>
<path transform="translate(272,672)" d="m0 0h4l1 4 3 1 2 6h7l8 20 8 14 8 11 5 6 5 5 12 13 9 11 11 13 8 11 12 16 3 5h-3l7 10 4 7 2 3 3 6-5-2-7-4-21-21v-2l-3-1-9-11-7-8-7-9-8-11-2-5-3-1v-3h-3l-1-4h-2l-7-8-1-3-4-2-1-3h-3l-1-5-2 1 1 4-4-5-3-4 1-2 1-4-2-2-2-9-6-13-4-12-1-7z" fill="#3F4040"/>
<path transform="translate(736,1156)" d="m0 0h1v76l-2 60-1 2-9-1-4-2-3-24-1-14-4-17v-69h3l1 5 7-3 3 1 4 15 2 6 2 1v-10h-2l-3-6v-3h2l3 3v-19z" fill="#404141"/>
<path transform="translate(625,1382)" d="m0 0 2 1 4 13 3 4h5l1 6 1 36 1 8 1 66 2 9 1 8-1 1-8 1-10-1-2-5z" fill="#212222"/>
<path transform="translate(248,510)" d="m0 0h1l1 26 1 8 1-8 1-19h1l2 18 6 31 4 17 4 13 4 11 7 20 4 12 5 10 5 7v2l3 1 5 13 2 2 2-2 2-16h1v-8l-4-15 1-3 4 12 2 9 1-8 5 2 4 4-1 2-5-4-1 5 1 12 1 3h-2v9l7 13 7 10 9 10 12 12 7 5v3l12 9 4 7-5-2-14-10-10-8-8-7-7-8-10-14-5-10 1-3-2-6h-2l-2-15-1 16 4 10-1 2-5-10-5-5-8-10-2-1 1 5 2 2 3 9-2 7 1 9-3-4-4-13-1-5v9l-2-1-3-14-4-1-3-3-3-2-1-6 5-1 1 5v3h2l1 2 1-2h2l-4-7 1-3h2l-2-5-8-2 1 7-3 2-2-2-1-9-3-5 1-4 2-1-3-19-8-29-6-22-3-16-1-10zm4 43 1 2zm29 83 1 3zm1 3 1 3zm1 3 1 2zm1 2 1 5 1-3zm3 6 2 5 8 11 1-2-10-14zm11 16m21 22m1 2 2 5 2 1-2-5z" fill="#404141"/>
<path transform="translate(859,1405)" d="m0 0 7 2 1 1 1 7 3 73 1 43-2 1h-15l-2-4-1-67v-52l4-3z" fill="#222323"/>
<path transform="translate(431,1477)" d="m0 0 3 6-1 3h2v2h2l1 6-4-1 2 12 5 2 1 3 2 1 1 3 7 1 3-1 2-5 3-1v2l4 1 3 5 3 1-4-7-3-11v-8l2 3 7 21 1 5h2l-5-16-4-16v-4l3-2 1-3 7-1 5 9 8 14 4 20 1 9-1 2-3 1-13 1h-35l-5-5-3-9-4-23z" fill="#202121"/>
<path transform="translate(791,1364)" d="m0 0 5 1 3 4 3 18v9h2v3l16 2 5 3 1 2v28l-2 7-6 2h-17l-1 50h-1l-1-49-6-1-3-7-1-21v-13l2-13 1-4 4-1 1 3 2 1v-11l-5-1-2-1h-5l2-1v-6z" fill="#404141"/>
<path transform="translate(938,1335)" d="m0 0h6l1 2v10l-1 12v51l-1 34h-7l-8-5-1-2-1-12-1-48v-34l4-5z" fill="#202121"/>
<path transform="translate(415,667)" d="m0 0h13l6 3 9 8 6 5 3 6-1 6-5 4-8 4-9 1-6-9-2-2v8l-2 4 7-1v3l-8 5 25 1v1l-27 1-5 1-3-1 1 4 2 2-1 3-4-5v-6l2-3-5-2-6-8-3-11v-11l5-5z" fill="#222323"/>
<path transform="translate(1180 1e3)" d="m0 0h1l2 40 1 48v46l-1 42v20l-4 12-6-1-1-3h-5l-1 2-4-26v-26l2-28 1-82h1v79l3-1 3-5h3l2 7v8h3v3l1-2 1-17-1-63-1-33z" fill="#404141"/>
<path transform="translate(686,1446)" d="m0 0 2 1 1 29 1 1v41l-1 11 23-10 5-3 3-6 6-19 5-6 5-1 1 1 1 46-1 2h-48l-2 1-17 1h-14l-3-2v-20l2-3v3l2 1-1 4 1 3h2l2 6 10 1h10l2-27 1-54z" fill="#1F2020"/>
<path transform="translate(1222,1026)" d="m0 0 2 2v3h2l1-4 4 11 7 13 5 12 4 15-1 4-6 5-8 4h-3l-2 9-3 3-1-3-3-1h-3l-5-3-2-2-1-6 1-16 4-18 1-16 2-9z" fill="#404141"/>
<path transform="translate(952,974)" d="m0 0 5 1 1 9-3 31-1 2-2 26-2 15v6l-4-4v5h4l-1 17-1 6h-2l-1 2-3-8-2-34-2-11-5-17-2-6h-2v-2h-6l-3 3-6 1 3-5 13-11 9-11 9-10z" fill="#1F2020"/>
<path transform="translate(1207,479)" d="m0 0h1l1 11 1-3h3l1-3h2l1-3 3 2 4-2 2 2 4 22 1 11 1 36-4 8h-2l-1 2-1-2v-9l-4-30-3-16h-2v9l2 18 1 1 1 14v14l-3 26-5 10-2 9h-1v-17l5-44v-4l-4 24h-1v-18l2-10h-2l-1-7-1-8-2-4 1-14z" fill="#404141"/>
<path transform="translate(858,1063)" d="m0 0h2l-1 8-3 8-3 24-1 26-2-4-5-4-4-4-6-2-4 2-5 11-4 13-3 1-1-41-4-5 5-5 13-9 21-16z" fill="#1F2020"/>
<path transform="translate(811,1096)" d="m0 0h2l1 4-7 6-1 3h-2l-1 4-4 3-1 2-6 3-7 2-1-1-7-1-2 5-4 3-5 3-8 5-9 1-3-2-7 1-5 4-1 4 4 2-1 9-1 20-3-1v-2h-2l3 6v3h2v10l-3-1-4-12-1-9-6 1-5 2-1-9h3l2 2 3-3h2v-2l-7 2-2-1v-19h2l1-2 4-2v-2l33-13 33-16z" fill="#212222"/>
<path transform="translate(549,837)" d="m0 0 8 2 17 2 18 7 12 7 16 8 10 7 4 6 3 2v6l-6 2-5-1 2-5-10-2-15-7-10-1-3-1v-2h-8l-7-3-6-4-2-1-1-3-6 1-3-2-2 2-3-4v-7l-4-4-1-3z" fill="#3F4040"/>
<path transform="translate(324,496)" d="m0 0 1 3-3 33 1 12 4 17-1 4-1-3 2 14 8 23 8 16 3 5-1 2-1-1-7 1-4 2-6-5-5-5-6-9-3-6-2-9-2-4 1-3-2-9h3v2h2l2 5 4 2h2l2-2 4 4-2-5-3-5v-3h-2l-3-6-6-16-2-4 1-10 5-17 6-16zm-4 16-5 11-1 7 2-1 5-15zm-7 20 1 2zm-1 2-1 7v6l6 12 2 1-2-8-3-8-1-10z" fill="#3F4040"/>
<path transform="translate(932,837)" d="m0 0h3v7l-1 5v8l-5 11-9 12-5 5-5 1-7-2-1 3-2-1 1-2-8-2-6-3-1-2-3-1 5-3 7-9 7-4 6-7 6-9 8-4z" fill="#212222"/>
<path transform="translate(601,1315)" d="m0 0h1l1 24 1 8 1 24v76h-1l-1-22-2-9-1-11-1-1-2-20-2-4-5 1-2-1-2 2 1-13 1-4 1-44 9-5z" fill="#1F2020"/>
<path transform="translate(415,759)" d="m0 0 4 2 8 7 1-3 4 3v2h2l1-2 5 8 3 3v3l4 2 5 5 3-1 3 2v2h2v2l4 2v2h3v2h2v2l3-1-7-7 2-2v2h2v2h2v2h2l1-3 7 6-2 2-2-1 1 6 3 1v6l4 2 1-2 4 6 3 1v4l7 7 2 1v2l4 2 8 6 2 4-4-2-10-7-4-2-12-12-3-1-2-2-1 2v-2l-5-1v-2h-2l-1-2h-4l-11-11-8-7-11-10-11-9-5-5h3l-5-6-2-4-2-1z" fill="#3F4040"/>
<path transform="translate(292,664)" d="m0 0 4 2 9 12 3 2 4 9 2 1 4 10 8 11 5 5 1 4-1 3-3-2 7 10 4 6 1 3 4 2 13 13v2h2l7 9 1 6h-3l-7-8-11-12-9-10-15-16-5-6-2-1v-2l-4-2-9-11-5-7-2-9 1-4 1-6-4-8-1-1z" fill="#212222"/>
<path transform="translate(864,1407)" d="m0 0 3 1 1 7 2 44v24l-1 19h-3l-2 5-3 1-2-3-2-16-1-3v-9l1-9h-2v-6h2l-1-3 1-2h-2v-6h2v-8l1-2 2-14 2 1 2 7 1 6v-15l-1-16z" fill="#404141"/>
<path transform="translate(474 1e3)" d="m0 0h50l13 1v2l-9 1 5 3h11l1 2h-65l-87 1-37 2h-18v-1l18-2 52-2h62l1-2v2l5-1v-2h-64l-29-1v-1z" fill="#3F4040"/>
<path transform="translate(352,637)" d="m0 0h1l2 6 2 4h2l3 4 1-3v2l3 1-1 2 6 1 2 2 4 2 4-4 5 1-2 7 2 1-1 2-9 1-3 10-1 2-5 1-2-1-2 4 2 6h2l1 6-4-5-6-11-12-16-5-6-9-2-3-4 2-2v2l4 2 7-1 3-3h3l2-4z" fill="#404141"/>
<path transform="translate(572,922)" d="m0 0 7 1 2-1 9 4 16 5 4 2-1 5-8 5-14 4-7 4v5l2 1-4 1v-2h-2l-1-2-3-1v-2h-2v-3l-3-1-2-2h-2l-2-4v-4l6-4 3-3 2-5z" fill="#222323"/>
<path transform="translate(930,870)" d="m0 0 2 1-6 15-3 13-5 8v3l-5 3-3 3-5 3-4-1-2 2 1 2h-5v-2h-8l1 3-1 1h-5l1-4 4-2v-8l-9-1v-1h10l1 1v7h2l-1-4v-7l7-9 6-3 9-3 4-5 6-4z" fill="#232424"/>
<path transform="translate(855,847)" d="m0 0h2v2h10l-1 2h-5l3 3v16h-2l1 4-3 3-1 3h-2v14l3 1v2l-6-1v7l5 5 6 1v1h-7l-4-2-2 4-3-5v-9l-2-1-4-8v-22l3-9 4-4h2l2-6z" fill="#404141"/>
<path transform="translate(1182,1220)" d="m0 0h2l1 4 4 9h2l5 15 4 9v6l2 4 1 12h2l2 9 2 4 1 7-2 3h2l2 9-1 4-5-11-5-14-4-9-7-12-5-12-2-7-4-13-1-13 4-2z" fill="#3F4040"/>
<path transform="translate(686,1446)" d="m0 0 2 1 1 29 1 1v41l-1 11 4-2 3 1-3 2 2 1 19 1v1h-25l-2 1-17 1h-14l-3-2v-20l2-3v3l2 1-1 4 1 3h2l2 6 10 1h10l2-27 1-54z" fill="#202121"/>
<path transform="translate(1175,1491)" d="m0 0 8 1 3 1v14l-4 19-3 5-7 2-9-3-2-3v-9l3-14 2-1 2-3 1 1 1-7z" fill="#202121"/>
<path transform="translate(1094,1462)" d="m0 0 2 2 7 26 5 21 2 4 6 4 2 3v7l-5 4-6-1-8-4-2-7-3-20-1-14v-23z" fill="#414242"/>
<path transform="translate(785,1131)" d="m0 0 4 2v25l-1 7v32l-1 13v8l1 5-4 10-4-1-3-6 1-21 1-5h1l1 7 2 1v-18l-2 1-1 8h-1v-19l1-17h2v-12l-1-2v-10l2-6z" fill="#1E1F1F"/>
<path transform="translate(1166,1306)" d="m0 0 5 1 6 16 3 19 3 59 1 8v10h-2l-4-13-1-5-1-18-1-8 1-4-2-10-1-16v-5l-1-3-3-13-3-7-1-8z" fill="#202121"/>
<path transform="translate(306,630)" d="m0 0 2 2 5 19 1-8 5 2 4 4-1 2-5-4-1 5 1 12 1 3h-2v9l7 13 7 10 9 10 12 12 7 5v3l12 9 4 7-5-2-14-10-10-8-8-7-7-8-10-14-5-10 1-3-2-6h-2l-2-15-1 9h-1v-10l1-5h1v-8l-4-15zm13 58m1 2 2 5 2 1-2-5z" fill="#444545"/>
<path transform="translate(764,1290)" d="m0 0h1v81l-5 2h-8l-4-2-1-2v-42l1-9h1l1 34 2 4 2 10h3l1-14 1-7v-16l1-1-1-6 1-17 2-7 1-7z" fill="#212222"/>
<path transform="translate(798,1248)" d="m0 0h2v50l-5 10-4 1-3-3-3-9v-33l4 5v2h4l3-17z" fill="#1F2020"/>
<path transform="translate(942,1223)" d="m0 0 3 4-1 50-1 3-5-2-5-5-5-10-2-7v-11l10 2z" fill="#1F2020"/>
<path transform="translate(324,496)" d="m0 0 1 3-3 33 1 12 4 17-1 4-1-3 2 14 1 6-3-2-3-5v-3h-2l-3-6-6-16-2-4 1-10 5-17 6-16zm-4 16-5 11-1 7 2-1 5-15zm-7 20 1 2zm-1 2-1 7v6l6 12 2 1-2-8-3-8-1-10z" fill="#444545"/>
<path transform="translate(427,679)" d="m0 0 5 1 2 5-2 7-3 1 1 6h-2l1 4-3-3-4-7-1 3-1 7-1 2 7-1v3l-8 5 25 1v1l-27 1-5 1-3-1 1 4 2 2-1 3-4-5v-6l2-3-5-2 1-2h2l3-3 4-2 3-3 2-6v-3h2l-1-6z" fill="#404141"/>
<path transform="translate(1042,965)" d="m0 0h25l2 6h-5v2l-39 2-9 1h-13l2-4 16-5 7-1h9 3z" fill="#242525"/>
<path transform="translate(550,1511)" d="m0 0h1l2 7 2 5 5 4 8 1 26 1 13-2 2 2v4l-3 1h-57l-2-2 2-19z" fill="#232424"/>
<path transform="translate(260,1444)" d="m0 0h1l6 55 3 28 1 5-1 1h-9v-19l-1-32z" fill="#424343"/>
<path transform="translate(1150,1462)" d="m0 0 4 2 4 13 6 4 2 6v3l2 1-5 6-3 5-6 1-2-2-2-11z" fill="#1F2020"/>
<path transform="translate(753,1401)" d="m0 0 5 1 2 4v20l-16 1-1-2v-18l4-4z" fill="#404141"/>
<path transform="translate(834,1119)" d="m0 0h7l3 1 4 5v2h2l1 7-8-4h-6l-6 2-2 5-4 15-1 16-1 4h-2l-1 2-2-8 1-9v-7l3-3 5-20z" fill="#1E1F1F"/>
<path transform="translate(312,730)" d="m0 0 4 1 7 8 12 13 9 11 11 13 1 5-5-3-4-2-7-8v-2h-2v-2h-2l-9-11-1-3-4-2-12-12 1-4z" fill="#232424"/>
<path transform="translate(494,906)" d="m0 0 14 7 3 1h9l2 1v2l-16-1v2l-14 4h-8l-9-6v-2l-2-2 2-3 18 1z" fill="#3F4040"/>
<path transform="translate(683,123)" d="m0 0h4l-1 18-1 1-25 1v-3l9-4 8-1 1 2-2 1v2l8-1-1-7-5-1-21 3-20 5h-48v-1l8-1 30-1 18-2 19-4 21-3 1-3z" fill="#404141"/>
<path transform="translate(387,356)" d="m0 0 10 3 9 4 1-2v5h-2v7l-2 4-2 1v-7l-2-3-2 6-4 1-7-2-4-4v2h-2v-3l-2-1 3-3 3-4h3z" fill="#404141"/>
<path transform="translate(982 1e3)" d="m0 0 4 1v25l-2 21-2-3v-2l-4 2-1-2v-19l2-15z" fill="#1E1F1F"/>
<path transform="translate(1244,1131)" d="m0 0h2l3 4 2 22v44h-1l-1-10-4-16-1-28-1-15z" fill="#232424"/>
<path transform="translate(910,1018)" d="m0 0 2 1-1 6-6 7-6 4-5 4h-5l-4 4-1 4h-2l-1 3-4 2-1 2h-2v2h-2v2l-3 1-1 4-5 1-1-5 12-11 13-10 10-10 8-7z" fill="#252626"/>
<path transform="translate(1133,1463)" d="m0 0 2 2 1 4 1 37-3 4-6-1-2-2 2-6 1-9 1-1v-14l1-12h2z" fill="#1E1F1F"/>
<path transform="translate(998,989)" d="m0 0 2 1 4-1 3 1 2 3-1 4 1 3-2 5-6 2-9 1v-2h-3v-2h2l-2-4v-5l6-5z" fill="#232424"/>
<path transform="translate(307,713)" d="m0 0 3 1 7 9 9 10 6 8 10 11 7 8 10 11 8 10-1 2-6-4-13-15-9-11-10-11v-2l-4-2-9-11-7-10z" fill="#444545"/>
<path transform="translate(932,837)" d="m0 0h3v7l-1 5v8l-2 5-4-3v-2l-4-2-5-2-4 1-3 1v2h-2v-5l4-2 3-6h3v2h-2l1 4 9 3v-2l-7-4 1-4-3-1 3-2z" fill="#3E3F3F"/>
<path transform="translate(897,946)" d="m0 0 10 1h3l-6 5-1 2-9 1h-3-4l-4-1-6-1h-9l-7-1-15-1-1-2 13-2h7l-3 2h18 3l8-1 5 1z" fill="#424343"/>
<path transform="translate(759,1494)" d="m0 0 2 3 1 6 1 28-1 1-8 1h-14l-1-3 3-3 10 1h3z" fill="#232424"/>
<path transform="translate(1025,986)" d="m0 0h3v9l-1 2-1 10 1 7-1 8h-2v13l-2 3-1-30-3-8 1-10 3-1z" fill="#212222"/>
<path transform="translate(830,1258)" d="m0 0h1l1 7 5 2 7 1 2-1-1 9-7 9-4 2-3-5-1-5z" fill="#212222"/>
<path transform="translate(1128,972)" d="m0 0 4 1 16 15 3 7 1 6 1 24v28l-2-2-1-13v-36l-2-5-8-6-5-6-3-9z" fill="#414242"/>
<path transform="translate(1071,1506)" d="m0 0 2 3v14l1 1v7l-4 3h-11l-3-2-1-5 2-6 4 2v3l6-3 2-7 1-1v-8z" fill="#212222"/>
<path transform="translate(938,1335)" d="m0 0h6l1 2v10l-1 12v26h-1l-1-23-2-9-5-2-2-11 2-3-2-1z" fill="#404141"/>
<path transform="translate(1249,1220)" d="m0 0h1v23l-2 19-3 3v-8l-2-9v-12l2-12 1-2h3z" fill="#222323"/>
<path transform="translate(729,1498)" d="m0 0 3 1v12l-2 6-1 7h-2l-1 3-4-1-3-3 1-2h2l1-8-1-3 1-3h2v-2l1-1h-1v-5z" fill="#3F4040"/>
<path transform="translate(1150,1301)" d="m0 0 2 1v5l-3 1 2 9-1 11 1 6-2 8-1 3-1 8h-1v-17l1-1-2-3-1-13 1-10 3-6h2z" fill="#212222"/>
<path transform="translate(890,870)" d="m0 0 1 2h3v2h2v2l6-1h4v2h2v3l2-1v3h-3v2h-4l-1 3-2-1 1-2-8-2-6-3-1-2-3-1 5-3z" fill="#3F4040"/>
<path transform="translate(1015,717)" d="m0 0 1 3-3 7-12 19-8 11-2 5-4 4-5 3-5 4 2-4 4-5h2l2-5 9-12 10-15 5-8z" fill="#3C3D3D"/>
<path transform="translate(1237,1131)" d="m0 0 3 1v36l-1 2h-2l-1 3v-41z" fill="#1E1F1F"/>
<path transform="translate(269,418)" d="m0 0h1v6 3 30h-1l-1-28h-2l-3 9-6 24-2 17h-1l-1-14 6-24 5-13 4-5z" fill="#404141"/>
<path transform="translate(1006,1524)" d="m0 0 2 1v5l-1 1h-7l-1-1-7 2h-18l-2-4 5-3 5 2h3l7 1h1v-2h12z" fill="#1E1F1F"/>
<path transform="translate(723,1163)" d="m0 0h2l8 16v3h2v10l-3-1-4-12-1-9-6 1-5 2-1-9h3l2 2z" fill="#1E1F1F"/>
<path transform="translate(1109,1517)" d="m0 0h5l4 5v7l-5 4-6-1 1-13z" fill="#232424"/>
<path transform="translate(183,965)" d="m0 0h4l2 8v7l-1 5-5-1-3-7 1-10z" fill="#242525"/>
<path transform="translate(769,107)" d="m0 0 47 3 16 2 1 1h8v1l-11 1-26-3-34-2z" fill="#424343"/>
<path transform="translate(400,719)" d="m0 0 7 6 9 17h-3l-14-11-2-1 1-3 3 2h1v-2l-4-1-1-5z" fill="#3F4040"/>
<path transform="translate(1051,980)" d="m0 0 5 1 2 3-1 3 1 1-1 29h-1l-1-6h-1v-14l-4-11v-3l-5-1v-1z" fill="#1E1F1F"/>
<path transform="translate(965 1e3)" d="m0 0h3l1 5-1 3v13l-1 7h-3l-1 5h-1v-14l1-11z" fill="#242525"/>
<path transform="translate(288,335)" d="m0 0 2 3-2 9-4 13-6 30-3-1 1-9 8-33zm0 4m-10 40m-1 2 1 4z" fill="#424343"/>
<path transform="translate(910,1018)" d="m0 0 2 1-1 6-6 7-6 4-5 4-4-2 9-9 7-8z" fill="#202121"/>
<path transform="translate(344,674)" d="m0 0 3 1 12 17v2l4 2 7 6-2-5v-3h2l1-2 3 8 3 4v5h-3v-2h-5v-2l-2-1-6-7-5-5-7-10z" fill="#3F4040"/>
<path transform="translate(998,980)" d="m0 0h4l4 4 5 1-1 16-2 2 1-5-3-1 2-4-2-3-7 2-1-2h-3l2-5h2v-2l-3-1z" fill="#464747"/>
<path transform="translate(1097,974)" d="m0 0h2l1 2v35l-2-3-2 3v-35z" fill="#1E1F1F"/>
<path transform="translate(274,646)" d="m0 0h6l4 3v4h-2l1 5 2 5h-2l-1 3-1-3h-2l-1-8-5 1 1-7z" fill="#1E1F1F"/>
<path transform="translate(730,1282)" d="m0 0 4 3v9l-9-1-4-2v-8l2 1z" fill="#212222"/>
<path transform="translate(572,922)" d="m0 0 7 1 2-1 9 4-5 5-6 2-3-1v-3l-3-1z" fill="#3F4040"/>
<path transform="translate(959,1089)" d="m0 0h1v12h2l3 11v7l1 5v7h-1l-3-11-3-2z" fill="#3F4040"/>
<path transform="translate(1228,1037)" d="m0 0 3 1 7 13 4 9v6l-4-5-5-8-3-5v-5h-2l-1-4z" fill="#232424"/>
<path transform="translate(544,914)" d="m0 0 5 5 5 6 1 9-2 5-1 11-2-3 2 12-2-2-2-7v-9l3-7-1-7-2-6-4-5z" fill="#404141"/>
<path transform="translate(1177,1327)" d="m0 0h1l2 15 2 44v12h-1l-1-7-1-18-1-7v-15z" fill="#414242"/>
<path transform="translate(1148,520)" d="m0 0h2l-4 27-1 8-2-3-2 15h-1v-10l4-22z" fill="#404141"/>
<path transform="translate(265,1494)" d="m0 0h1l2 17 3 21-5 1-1-18z" fill="#232424"/>
<path transform="translate(311,281)" d="m0 0 1 2-9 19-7 19-2 7h-3l1-5 7-19 8-16z" fill="#474848"/>
<path transform="translate(1114,1497)" d="m0 0 4 2 4 5v6l-4 4-4-4z" fill="#1F2020"/>
<path transform="translate(1197,631)" d="m0 0 1 4-1 10-10 24-4 6-1-2 8-19zm-1 8 1 2z" fill="#404141"/>
<path transform="translate(835,1114)" d="m0 0 6 2 5 5 5 4-1 4v-2h-2l-4-5v-2h-10l-7 8-1-3 5-9z" fill="#404141"/>
<path transform="translate(873,932)" d="m0 0 3 1-3 3-7 2-15 2v-4l5-2 14-1z" fill="#404141"/>
<path transform="translate(538,992)" d="m0 0 2 3-6 2-7 1-2-2 1-2-5 1h-30v-1z" fill="#404141"/>
<path transform="translate(463,1491)" d="m0 0 2 3 7 21 1 5h2l1-4 1 5h-6l-4-4h3l-4-7-3-11z" fill="#444545"/>
<path transform="translate(1153,1278)" d="m0 0 4 1 2 4-3 3-5 12h-2v-7z" fill="#242525"/>
<path transform="translate(399,367)" d="m0 0 2 1 1 7-1 6-6-1-7-3 2-4 4 1 3-1z" fill="#222323"/>
<path transform="translate(1097,1149)" d="m0 0 2 1 1 19-2 4-4-3 1-12z" fill="#1E1F1F"/>
<path transform="translate(692,1381)" d="m0 0h2l-1 5-5 4h-10l-3-1-1-3 3-1v3l4-3 8-2z" fill="#2A2B2B"/>
<path transform="translate(1074,1183)" d="m0 0 5 1 2 6-2 11-2-1-3-10-2-5h2z" fill="#1E1F1F"/>
<path transform="translate(697,541)" d="m0 0 5 3v3l1-1v-2l5-1-2 6-2 3h-6l-3-2z" fill="#424343"/>
<path transform="translate(1014,759)" d="m0 0 2 2-4 4h-2l-1 3-6 5-19 19-2-1z" fill="#404141"/>
<path transform="translate(930,870)" d="m0 0 2 1-6 15-1 6-1-2-2-1 1-3-4-2 6-7z" fill="#3F4040"/>
<path transform="translate(1015,717)" d="m0 0 1 3-3 7-11 17-3 1 2-5 7-11 6-11z" fill="#373838"/>
<path transform="translate(878,908)" d="m0 0h10l1 1v7h2v2l4-2 1 2 4 1v3h-5v-2h-8l1 3-1 1h-5l1-4 4-2v-8l-9-1z" fill="#424343"/>
<path transform="translate(444,792)" d="m0 0h6l6 5 1 7-4-1-8-7z" fill="#242525"/>
<path transform="translate(769,107)" d="m0 0 34 2 1 2h-19l-15-1z" fill="#404141"/>
<path transform="translate(466,792)" d="m0 0 1 2h2v2h2v2h2l1-3 7 6-2 2-2-1v4l-4-2-3-5-5-6z" fill="#393A3A"/>
<path transform="translate(554,964)" d="m0 0 3 4 3 6 2 1-2-5 5 5 7 6 2 2-7-1-6-4-4-5-3-6z" fill="#404141"/>
<path transform="translate(903,904)" d="m0 0h2l-1 5h-2l1 4 6 1 3-1v2l-7 4-5-1-2-12 5-1z" fill="#404141"/>
<path transform="translate(856,852)" d="m0 0 5 4 2-1v11l-2 5-1-4 1-3h-2l-3-6z" fill="#1E1F1F"/>
<path transform="translate(917,844)" d="m0 0h3v2h-2l1 4 6 2 2 2-2 2-5-3-5 1-3 1v2h-2v-5l4-2z" fill="#404141"/>
<path transform="translate(821,90)" d="m0 0h9l7 1v1h-8l-2 2-20-1-1-2h15z" fill="#404141"/>
<path transform="translate(802,1515)" d="m0 0 1 2 6-1h9l-4 4-5 3-5-1v-2h3v-2h-5z" fill="#404141"/>
<path transform="translate(750,1145)" d="m0 0h4l1 2v7l-2 9-4 2v-7l1-5h2l1-4-1-3z" fill="#1E1F1F"/>
<path transform="translate(570,948)" d="m0 0 11 1-1 7 2 1-4 1v-2h-2l-1-2-3-1v-2h-2z" fill="#404141"/>
<path transform="translate(391,731)" d="m0 0h6l6 3-2 2-6-2v2l-4 1-8-4 3-1z" fill="#3E3F3F"/>
<path transform="translate(1031,1142)" d="m0 0h1v15l-1 7-2-1-1-11 2-9z" fill="#1E1F1F"/>
<path transform="translate(1151,1026)" d="m0 0h2v27l-2-2-1-13z" fill="#404141"/>
<path transform="translate(461,805)" d="m0 0 6 3v2l2 1-1 2h2v4l-4-2-6-6z" fill="#252626"/>
<path transform="translate(919,843)" d="m0 0h3l1 4 6 4 1 2-3 1-3-2-6-2-1-2 1-2h2z" fill="#1E1F1F"/>
<path transform="translate(457,789)" d="m0 0 5 1v2l4 2 7 7-4 1v-2h-2v-2h-3l-4-4v-2h-2z" fill="#1E1F1F"/>
<path transform="translate(1e3 1293)" d="m0 0h4l1 7h-7l-3-2z" fill="#262727"/>
<path transform="translate(985,988)" d="m0 0h2l-2 10-5-1-1-5 1-2h5z" fill="#1E1F1F"/>
<path transform="translate(858,947)" d="m0 0h7l-4 2v3l-15-1-1-2z" fill="#474848"/>
<path transform="translate(869,872)" d="m0 0h4l5 1 4 3-7 1-9-1z" fill="#404141"/>
<path transform="translate(693,1527)" d="m0 0 3 1-3 2 2 1 19 1v1h-27v-3z" fill="#404141"/>
<path transform="translate(431,1477)" d="m0 0 3 6-1 3h2v2h2l1 6-5-2-2-1z" fill="#1E1F1F"/>
<path transform="translate(891,837)" d="m0 0 4 1-6 3-10 8-6 4-1-3 9-6z" fill="#404141"/>
<path transform="translate(348,519)" d="m0 0 2 4 2 9v12l-2-2-2-9zm1 11 1 2z" fill="#404141"/>
<path transform="translate(709,327)" d="m0 0 4 2h-3l-3 10-2 12h-1l-1-8 3-12z" fill="#404141"/>
<path transform="translate(1064,1481)" d="m0 0 4 1 2 5-4 1-5 1-1-5h3z" fill="#202121"/>
<path transform="translate(1117,1268)" d="m0 0 4 2 3 2v5h-5l-2-2z" fill="#252626"/>
<path transform="translate(627,974)" d="m0 0h1v6h-13v-2l10-2z" fill="#404141"/>
<path transform="translate(267,736)" d="m0 0 2 2 6 15-1 3-3-7h-3z" fill="#404141"/>
<path transform="translate(1135,722)" d="m0 0 1 3-2 5-2 2h-4l-1 2-2-4 2-2 1 2z" fill="#3B3C3C"/>
<path transform="translate(571,927)" d="m0 0 2 3-5 7-6 1 3 7h-2l-2-4v-4l6-4 3-3z" fill="#404141"/>
<path transform="translate(1130,997)" d="m0 0 6 1 3 3-1 2-3-2h-6l-3 6h-1v-5z" fill="#404141"/>
<path transform="translate(800,1221)" d="m0 0 3 1v6l-1 2-4-1-1-4z" fill="#1E1F1F"/>
<path transform="translate(1008,971)" d="m0 0 5 1-2 2 5 1v1h-13l2-4z" fill="#282929"/>
<path transform="translate(599,870)" d="m0 0 7 1 9 5 1 2-5-1-8-4-5-1z" fill="#1E1F1F"/>
<path transform="translate(353,314)" d="m0 0h1l1 6 1 4-3 10h-1v-12z" fill="#404141"/>
<path transform="translate(432,1490)" d="m0 0h1l2 7v9l-3-3-1-12z" fill="#292A2A"/>
<path transform="translate(859,1071)" d="m0 0 1 4-3 8-1 7h-2l1-11z" fill="#454646"/>
<path transform="translate(567,890)" d="m0 0 7 6 5 6v2l-4-2-5-6-3-4z" fill="#404141"/>
<path transform="translate(765,1253)" d="m0 0h1v16l-3-1v-11h2z" fill="#222323"/>
<path transform="translate(918,842)" d="m0 0 2 1-3 1-1 4-3 4-4-1 5-7z" fill="#282929"/>
<path transform="translate(1015,717)" d="m0 0 1 3-3 7-4 6-1-4 6-11z" fill="#404141"/>
<path transform="translate(561,1234)" d="m0 0 1 3h-2v9l-1 1 1 2h-2l-1 2-1-3 2-8-2-1h2l1-3h2z" fill="#3E3F3F"/>
<path transform="translate(844,597)" d="m0 0 9 2 2 1-1 4-2-1-2 2-5-5z" fill="#404141"/>
<path transform="translate(461,1326)" d="m0 0 2 1-2 5-7 11-1-3z" fill="#404141"/>
<path transform="translate(1210,545)" d="m0 0h1v8l-2 12h-1v-18z" fill="#454646"/>
<path transform="translate(945,1223)" d="m0 0h1v17h-2v-13l-1-3z" fill="#454646"/>
<path transform="translate(444,792)" d="m0 0h6l2 2-1 4-4-1-2-1z" fill="#2A2B2B"/>
<path transform="translate(1046,689)" d="m0 0 2 1-3 10-1-2-4-2 1-2 2 1z" fill="#414242"/>
<path transform="translate(333,686)" d="m0 0 5 2v2h3l2 5-5-1-5-6z" fill="#404141"/>
<path transform="translate(1241,1295)" d="m0 0 5 2 2 1-2 10h-1l-1-8z" fill="#404141"/>
<path transform="translate(637,1256)" d="m0 0 5 2 1-2 2 5-5 1h-3z" fill="#FDFDFD"/>
<path transform="translate(660,737)" d="m0 0 8 4v1h-9l-3-2z" fill="#404141"/>
<path transform="translate(314,643)" d="m0 0 5 2 4 4-1 2-5-4-1 5h-2z" fill="#404141"/>
<path transform="translate(951,906)" d="m0 0 1 2-9 13-3 2 2-4z" fill="#3E3F3F"/>
<path transform="translate(1027,743)" d="m0 0 2 1-2 5-5 6-3-2h2l2-4z" fill="#404141"/>
<path transform="translate(702,520)" d="m0 0 2 4 3 4h-2l-1 5-5 2 2-4 2-3-1-1z" fill="#404141"/>
<path transform="translate(995,983)" d="m0 0h4v2h-2l-2 5-4-1 3-5z" fill="#2F3030"/>
<path transform="translate(598,872)" d="m0 0h5l10 5-2 2-5-2v-2l-6-1z" fill="#404141"/>
<path transform="translate(1239,1517)" d="m0 0 2 4-2 10-3-1z" fill="#545555"/>
<path transform="translate(1053,979)" d="m0 0 6 1 1 7h-2l-2-6h-3zm3 7 2 2h-2z" fill="#464747"/>
<path transform="translate(926,917)" d="m0 0h4l2 8h-3v-3h-2z" fill="#3E3F3F"/>
<path transform="translate(618,878)" d="m0 0h8l3 3h-2l-1 2-7-3z" fill="#1E1F1F"/>
<path transform="translate(850,843)" d="m0 0 1 3 3 1-4 2-6 5 1-5 4-3z" fill="#404141"/>
<path transform="translate(1238,1322)" d="m0 0 2 4-1 5h-2l-4-5 1-2 3 1z" fill="#404141"/>
<path transform="translate(1112,706)" d="m0 0 2 2 2-1 1 10-4-4-2-1z" fill="#404141"/>
<path transform="translate(1057,429)" d="m0 0 3 1 2 5 1 2-4-1-2 2z" fill="#3E3F3F"/>
<path transform="translate(540,145)" d="m0 0 10 1v1l-13 1-3-2z" fill="#474747"/>
<path transform="translate(724,1502)" d="m0 0 3 1v2h-2v2h-2l-1 4-2 1 2-9z" fill="#252626"/>
<path transform="translate(497,1239)" d="m0 0 3 1v2l3 1-3 3-4-3z" fill="#3E3F3F"/>
<path transform="translate(1038,722)" d="m0 0h2l-2 6-3 6-2-1 2-6z" fill="#474848"/>
<path transform="translate(780,646)" d="m0 0 3 1v2l-7 1z" fill="#515252"/>
<path transform="translate(683,597)" d="m0 0h1v5h-4l2-4z" fill="#3B3C3C"/>
<path transform="translate(370,790)" d="m0 0 5 2v3l-4-2z" fill="#4D4E4E"/>
<path transform="translate(376,795)" d="m0 0 4 3-1 2-4-4z" fill="#404141"/>
<path transform="translate(425,649)" d="m0 0 5 2-1 2-4-2z" fill="#404141"/>
<path transform="translate(498,367)" d="m0 0 2 1-3 3-2-1z" fill="#575858"/>
<path transform="translate(757,327)" d="m0 0 3 1-1 2h-2z" fill="#404141"/>
<path transform="translate(1042,285)" d="m0 0 4 4-4-2z" fill="#5B5B5B"/>
<path transform="translate(363,781)" d="m0 0 3 2-1 2z" fill="#404141"/>
<path transform="translate(473,171)" d="m0 0 2 1-4 1z" fill="#656666"/>
<path transform="translate(476,169)" d="m0 0 2 1h-3z" fill="#6F7070"/>
<path transform="translate(647,1532)" d="m0 0 2 2h-2z" fill="#404141"/>
<path transform="translate(612,978)" d="m0 0 1 2-2-1z" fill="#404141"/>
<path transform="translate(701,369)" d="m0 0 2 2h-2z" fill="#7F7F7F"/>
<path transform="translate(461,1490)" d="m0 0 2 1z" fill="#9E9F9F"/>
<path transform="translate(461,1487)" d="m0 0" fill="#404141"/>
<path transform="translate(939,923)" d="m0 0" fill="#404141"/>
<path transform="translate(497,850)" d="m0 0 2 1z" fill="#FDFDFD"/>
<path transform="translate(371,788)" d="m0 0" fill="#404141"/>
<path transform="translate(368,787)" d="m0 0" fill="#404141"/>
<path transform="translate(370,786)" d="m0 0" fill="#404141"/>
<path transform="translate(261,677)" d="m0 0" fill="#404141"/>
<path transform="translate(648,1531)" d="m0 0" fill="#FDFDFD"/>
<path transform="translate(938,925)" d="m0 0" fill="#404141"/>
<path transform="translate(952,905)" d="m0 0" fill="#404141"/>
<path transform="translate(953,904)" d="m0 0" fill="#404141"/>
<path transform="translate(523,871)" d="m0 0" fill="#FDFDFD"/>
<path transform="translate(382,802)" d="m0 0" fill="#404141"/>
<path transform="translate(381,801)" d="m0 0" fill="#404141"/>
<path transform="translate(380,800)" d="m0 0" fill="#404141"/>
<path transform="translate(374,795)" d="m0 0" fill="#404141"/>
<path transform="translate(372,790)" d="m0 0" fill="#404141"/>
<path transform="translate(369,789)" d="m0 0" fill="#404141"/>
<path transform="translate(367,786)" d="m0 0" fill="#404141"/>
<path transform="translate(369,785)" d="m0 0" fill="#404141"/>
<path transform="translate(366,785)" d="m0 0" fill="#404141"/>
<path transform="translate(368,784)" d="m0 0" fill="#404141"/>
<path transform="translate(367,783)" d="m0 0" fill="#404141"/>
<path transform="translate(306,712)" d="m0 0" fill="#404141"/>
<path transform="translate(262,680)" d="m0 0" fill="#404141"/>
<path transform="translate(260,676)" d="m0 0" fill="#404141"/>
<path transform="translate(1165,387)" d="m0 0" fill="#404141"/>
<path transform="translate(619,361)" d="m0 0" fill="#404141"/>
<path transform="translate(426,245)" d="m0 0" fill="#404141"/>
<path transform="translate(470,173)" d="m0 0" fill="#404141"/>
<path transform="translate(478,168)" d="m0 0" fill="#404141"/>
</svg>
